<svg xmlns="http://www.w3.org/2000/svg" width="1024" height="1024" viewBox="0 0 1024 1024">
<path d="M 467.00,488.50 466.00,488.50 465.00,488.50 464.00,488.50 463.00,488.50 462.00,488.50 461.00,488.50 460.00,488.50 459.00,488.50 458.00,488.50 457.00,488.50 456.50,488.00 456.00,487.50 455.00,487.50 454.00,487.50 453.00,487.50 452.00,487.50 451.50,487.00 451.00,486.50 450.00,486.50 449.00,486.50 448.50,486.00 448.00,485.50 447.00,485.50 446.50,485.00 446.00,484.50 445.00,484.50 444.50,484.00 444.00,483.50 443.00,483.50 442.50,483.00 442.00,482.50 441.00,482.50 440.50,482.00 440.00,481.50 439.50,481.00 439.00,480.50 438.00,480.50 437.50,480.00 437.00,479.50 436.50,479.00 436.00,478.50 435.50,478.00 435.00,477.50 434.50,477.00 434.00,476.50 433.50,476.00 433.50,475.00 433.00,474.50 432.50,474.00 432.00,473.50 431.50,473.00 431.00,472.50 430.50,472.00 430.50,471.00 430.00,470.50 429.50,470.00 429.00,469.50 428.50,469.00 428.50,468.00 428.50,467.00 428.00,466.50 427.50,466.00 427.50,465.00 427.50,464.00 427.00,463.50 426.50,463.00 426.50,462.00 426.50,461.00 426.50,460.00 426.50,459.00 426.00,458.50 425.50,458.00 425.50,457.00 425.50,456.00 425.50,455.00 425.50,454.00 425.50,453.00 425.50,452.00 425.50,451.00 425.50,450.00 425.50,449.00 425.50,448.00 425.50,447.00 425.50,446.00 425.50,445.00 425.50,444.00 425.50,443.00 425.50,442.00 425.50,441.00 425.50,440.00 425.50,439.00 425.50,438.00 425.50,437.00 425.50,436.00 425.50,435.00 425.50,434.00 425.50,433.00 425.50,432.00 425.50,431.00 425.50,430.00 425.50,429.00 425.50,428.00 425.50,427.00 425.50,426.00 425.50,425.00 425.50,424.00 425.50,423.00 425.50,422.00 425.50,421.00 425.50,420.00 425.50,419.00 425.50,418.00 425.50,417.00 425.50,416.00 425.50,415.00 425.50,414.00 425.50,413.00 425.50,412.00 425.50,411.00 425.50,410.00 425.50,409.00 425.50,408.00 425.50,407.00 425.50,406.00 425.50,405.00 425.50,404.00 425.50,403.00 425.50,402.00 425.50,401.00 425.50,400.00 425.50,399.00 425.50,398.00 425.50,397.00 425.50,396.00 425.50,395.00 425.50,394.00 425.50,393.00 425.50,392.00 425.50,391.00 425.50,390.00 425.50,389.00 425.50,388.00 425.50,387.00 425.50,386.00 425.50,385.00 425.50,384.00 425.50,383.00 425.50,382.00 425.50,381.00 425.50,380.00 425.50,379.00 425.50,378.00 425.50,377.00 425.50,376.00 425.50,375.00 425.50,374.00 425.50,373.00 425.50,372.00 425.50,371.00 425.50,370.00 425.50,369.00 425.50,368.00 425.50,367.00 425.50,366.00 425.50,365.00 425.50,364.00 425.50,363.00 425.50,362.00 425.50,361.00 425.50,360.00 425.50,359.00 425.50,358.00 425.50,357.00 425.50,356.00 425.50,355.00 425.50,354.00 425.50,353.00 425.50,352.00 425.50,351.00 425.50,350.00 425.50,349.00 425.50,348.00 425.50,347.00 425.50,346.00 425.50,345.00 425.50,344.00 425.50,343.00 425.50,342.00 425.50,341.00 425.50,340.00 425.50,339.00 425.50,338.00 426.00,337.50 426.50,337.00 426.50,336.00 426.50,335.00 426.50,334.00 426.50,333.00 427.00,332.50 427.50,332.00 427.50,331.00 427.50,330.00 428.00,329.50 428.50,329.00 428.50,328.00 428.50,327.00 429.00,326.50 429.50,326.00 429.50,325.00 430.00,324.50 430.50,324.00 431.00,323.50 431.50,323.00 431.50,322.00 432.00,321.50 432.50,321.00 433.00,320.50 433.50,320.00 433.50,319.00 434.00,318.50 434.50,318.00 435.00,317.50 435.50,317.00 436.00,316.50 436.50,316.00 437.00,315.50 437.50,315.00 438.00,314.50 438.50,314.00 439.00,313.50 440.00,313.50 440.50,313.00 441.00,312.50 441.50,312.00 442.00,311.50 443.00,311.50 443.50,311.00 444.00,310.50 444.50,310.00 445.00,309.50 446.00,309.50 447.00,309.50 447.50,309.00 448.00,308.50 449.00,308.50 450.00,308.50 450.50,308.00 451.00,307.50 452.00,307.50 453.00,307.50 454.00,307.50 454.50,307.00 455.00,306.50 456.00,306.50 457.00,306.50 458.00,306.50 459.00,306.50 460.00,306.50 461.00,306.50 462.00,306.50 463.00,306.50 464.00,306.50 465.00,306.50 466.00,306.50 467.00,306.50 468.00,306.50 469.00,306.50 470.00,306.50 470.50,307.00 471.00,307.50 472.00,307.50 473.00,307.50 473.50,308.00 474.00,308.50 475.00,308.50 476.00,308.50 476.50,309.00 477.00,309.50 478.00,309.50 478.50,310.00 479.00,310.50 479.50,311.00 480.00,311.50 481.00,311.50 481.50,312.00 482.00,312.50 482.50,313.00 483.00,313.50 484.00,313.50 484.50,314.00 485.00,314.50 485.50,315.00 486.00,315.50 486.50,316.00 487.00,316.50 487.50,317.00 488.00,317.50 488.50,318.00 489.00,318.50 489.50,319.00 490.00,319.50 490.50,320.00 490.50,321.00 491.00,321.50 491.50,322.00 492.00,322.50 492.50,323.00 492.50,324.00 493.00,324.50 493.50,325.00 493.50,326.00 494.00,326.50 494.50,327.00 494.50,328.00 494.50,329.00 495.00,329.50 495.50,330.00 495.50,331.00 495.50,332.00 496.00,332.50 496.50,333.00 496.50,334.00 496.50,335.00 496.50,336.00 496.50,337.00 496.50,338.00 497.00,338.50 497.50,339.00 497.50,340.00 497.50,341.00 497.50,342.00 497.50,343.00 497.50,344.00 497.50,345.00 497.50,346.00 497.50,347.00 497.50,348.00 497.50,349.00 497.50,350.00 497.50,351.00 497.50,352.00 497.50,353.00 497.50,354.00 497.50,355.00 497.50,356.00 497.50,357.00 497.50,358.00 497.50,359.00 497.50,360.00 497.50,361.00 497.50,362.00 497.50,363.00 497.50,364.00 497.50,365.00 497.50,366.00 497.50,367.00 497.50,368.00 497.50,369.00 497.50,370.00 497.50,371.00 497.50,372.00 497.50,373.00 497.50,374.00 497.50,375.00 497.50,376.00 497.50,377.00 497.50,378.00 497.50,379.00 497.50,380.00 497.50,381.00 497.50,382.00 497.50,383.00 497.50,384.00 497.50,385.00 497.50,386.00 497.50,387.00 497.50,388.00 497.50,389.00 497.50,390.00 497.50,391.00 497.50,392.00 497.50,393.00 497.50,394.00 497.50,395.00 497.50,396.00 497.50,397.00 497.50,398.00 497.50,399.00 497.50,400.00 497.50,401.00 497.50,402.00 497.50,403.00 497.50,404.00 497.50,405.00 497.50,406.00 497.50,407.00 497.50,408.00 497.50,409.00 497.50,410.00 497.50,411.00 497.50,412.00 497.50,413.00 497.50,414.00 497.50,415.00 497.50,416.00 497.50,417.00 497.50,418.00 497.50,419.00 497.50,420.00 497.50,421.00 497.50,422.00 497.50,423.00 497.50,424.00 497.50,425.00 497.50,426.00 497.50,427.00 497.50,428.00 497.50,429.00 497.50,430.00 497.50,431.00 497.50,432.00 497.50,433.00 497.50,434.00 497.50,435.00 497.50,436.00 497.50,437.00 497.50,438.00 497.50,439.00 497.50,440.00 497.50,441.00 497.50,442.00 497.50,443.00 497.50,444.00 497.50,445.00 497.50,446.00 497.50,447.00 497.50,448.00 497.50,449.00 497.50,450.00 497.50,451.00 497.50,452.00 497.50,453.00 497.50,454.00 497.50,455.00 497.50,456.00 497.00,456.50 496.50,457.00 496.50,458.00 496.50,459.00 496.50,460.00 496.50,461.00 496.50,462.00 496.00,462.50 495.50,463.00 495.50,464.00 495.50,465.00 495.00,465.50 494.50,466.00 494.50,467.00 494.00,467.50 493.50,468.00 493.50,469.00 493.00,469.50 492.50,470.00 492.50,471.00 492.00,471.50 491.50,472.00 491.00,472.50 490.50,473.00 490.50,474.00 490.00,474.50 489.50,475.00 489.00,475.50 488.50,476.00 488.00,476.50 487.50,477.00 487.00,477.50 486.50,478.00 486.00,478.50 485.50,479.00 485.00,479.50 484.50,480.00 484.00,480.50 483.50,481.00 483.00,481.50 482.00,481.50 481.50,482.00 481.00,482.50 480.50,483.00 480.00,483.50 479.00,483.50 478.50,484.00 478.00,484.50 477.00,484.50 476.50,485.00 476.00,485.50 475.00,485.50 474.50,486.00 474.00,486.50 473.00,486.50 472.00,486.50 471.50,487.00 471.00,487.50 470.00,487.50 469.00,487.50 468.00,487.50 467.50,488.00 467.00,488.50 Z" fill="black"/><path d="M 685.00,488.50 684.00,488.50 683.00,488.50 682.00,488.50 681.00,488.50 680.00,488.50 679.00,488.50 678.00,488.50 677.00,488.50 676.00,488.50 675.00,488.50 674.50,488.00 674.00,487.50 673.00,487.50 672.00,487.50 671.00,487.50 670.00,487.50 669.50,487.00 669.00,486.50 668.00,486.50 667.00,486.50 666.50,486.00 666.00,485.50 665.00,485.50 664.50,485.00 664.00,484.50 663.00,484.50 662.50,484.00 662.00,483.50 661.00,483.50 660.50,483.00 660.00,482.50 659.50,482.00 659.00,481.50 658.50,481.00 658.00,480.50 657.00,480.50 656.50,480.00 656.00,479.50 655.50,479.00 655.00,478.50 654.50,478.00 654.00,477.50 653.50,477.00 653.00,476.50 652.50,476.00 652.00,475.50 651.50,475.00 651.50,474.00 651.00,473.50 650.50,473.00 650.00,472.50 649.50,472.00 649.50,471.00 649.00,470.50 648.50,470.00 648.50,469.00 648.00,468.50 647.50,468.00 647.50,467.00 647.00,466.50 646.50,466.00 646.50,465.00 646.50,464.00 646.00,463.50 645.50,463.00 645.50,462.00 645.50,461.00 645.50,460.00 645.50,459.00 645.00,458.50 644.50,458.00 644.50,457.00 644.50,456.00 644.50,455.00 644.50,454.00 644.50,453.00 644.50,452.00 644.50,451.00 644.50,450.00 644.50,449.00 644.50,448.00 644.50,447.00 644.50,446.00 644.50,445.00 644.50,444.00 644.50,443.00 644.50,442.00 644.50,441.00 644.50,440.00 644.50,439.00 644.50,438.00 644.50,437.00 644.50,436.00 644.50,435.00 644.50,434.00 644.50,433.00 644.50,432.00 644.50,431.00 644.50,430.00 644.50,429.00 644.50,428.00 644.50,427.00 644.50,426.00 644.50,425.00 644.50,424.00 644.50,423.00 644.50,422.00 644.50,421.00 644.50,420.00 644.50,419.00 644.50,418.00 644.50,417.00 644.50,416.00 644.50,415.00 644.50,414.00 644.50,413.00 644.50,412.00 644.50,411.00 644.50,410.00 644.50,409.00 644.50,408.00 644.50,407.00 644.50,406.00 644.50,405.00 644.50,404.00 644.50,403.00 644.50,402.00 644.50,401.00 644.50,400.00 644.50,399.00 644.50,398.00 644.50,397.00 644.50,396.00 644.50,395.00 644.50,394.00 644.50,393.00 644.50,392.00 644.50,391.00 644.50,390.00 644.50,389.00 644.50,388.00 644.50,387.00 644.50,386.00 644.50,385.00 644.50,384.00 644.50,383.00 644.50,382.00 644.50,381.00 644.50,380.00 644.50,379.00 644.50,378.00 644.50,377.00 644.50,376.00 644.50,375.00 644.50,374.00 644.50,373.00 644.50,372.00 644.50,371.00 644.50,370.00 644.50,369.00 644.50,368.00 644.50,367.00 644.50,366.00 644.50,365.00 644.50,364.00 644.50,363.00 644.50,362.00 644.50,361.00 644.50,360.00 644.50,359.00 644.50,358.00 644.50,357.00 644.50,356.00 644.50,355.00 644.50,354.00 644.50,353.00 644.50,352.00 644.50,351.00 644.50,350.00 644.50,349.00 644.50,348.00 644.50,347.00 644.50,346.00 644.50,345.00 644.50,344.00 644.50,343.00 644.50,342.00 644.50,341.00 644.50,340.00 644.50,339.00 644.50,338.00 644.50,337.00 644.50,336.00 645.00,335.50 645.50,335.00 645.50,334.00 645.50,333.00 645.50,332.00 646.00,331.50 646.50,331.00 646.50,330.00 646.50,329.00 647.00,328.50 647.50,328.00 647.50,327.00 648.00,326.50 648.50,326.00 648.50,325.00 649.00,324.50 649.50,324.00 649.50,323.00 650.00,322.50 650.50,322.00 651.00,321.50 651.50,321.00 651.50,320.00 652.00,319.50 652.50,319.00 653.00,318.50 653.50,318.00 654.00,317.50 654.50,317.00 655.00,316.50 655.50,316.00 656.00,315.50 656.50,315.00 657.00,314.50 657.50,314.00 658.00,313.50 659.00,313.50 659.50,313.00 660.00,312.50 660.50,312.00 661.00,311.50 662.00,311.50 662.50,311.00 663.00,310.50 664.00,310.50 664.50,310.00 665.00,309.50 666.00,309.50 666.50,309.00 667.00,308.50 668.00,308.50 668.50,308.00 669.00,307.50 670.00,307.50 671.00,307.50 672.00,307.50 673.00,307.50 673.50,307.00 674.00,306.50 675.00,306.50 676.00,306.50 677.00,306.50 678.00,306.50 679.00,306.50 680.00,306.50 681.00,306.50 682.00,306.50 683.00,306.50 684.00,306.50 685.00,306.50 686.00,306.50 687.00,306.50 687.50,307.00 688.00,307.50 689.00,307.50 690.00,307.50 691.00,307.50 691.50,308.00 692.00,308.50 693.00,308.50 694.00,308.50 694.50,309.00 695.00,309.50 696.00,309.50 696.50,310.00 697.00,310.50 698.00,310.50 698.50,311.00 699.00,311.50 699.50,312.00 700.00,312.50 701.00,312.50 701.50,313.00 702.00,313.50 702.50,314.00 703.00,314.50 703.50,315.00 704.00,315.50 704.50,316.00 705.00,316.50 705.50,317.00 706.00,317.50 706.50,318.00 707.00,318.50 707.50,319.00 708.00,319.50 708.50,320.00 708.50,321.00 709.00,321.50 709.50,322.00 710.00,322.50 710.50,323.00 710.50,324.00 711.00,324.50 711.50,325.00 712.00,325.50 712.50,326.00 712.50,327.00 713.00,327.50 713.50,328.00 713.50,329.00 713.50,330.00 714.00,330.50 714.50,331.00 714.50,332.00 714.50,333.00 715.00,333.50 715.50,334.00 715.50,335.00 715.50,336.00 715.50,337.00 715.50,338.00 715.50,339.00 715.50,340.00 715.50,341.00 715.50,342.00 715.50,343.00 715.50,344.00 716.00,344.50 716.50,345.00 716.50,346.00 716.50,347.00 716.50,348.00 716.00,348.50 715.50,349.00 716.00,349.50 716.50,350.00 716.00,350.50 715.50,351.00 716.00,351.50 716.50,352.00 716.00,352.50 715.50,353.00 716.00,353.50 716.50,354.00 716.00,354.50 715.50,355.00 715.50,356.00 715.50,357.00 715.50,358.00 715.50,359.00 715.50,360.00 715.50,361.00 716.00,361.50 716.50,362.00 716.00,362.50 715.50,363.00 715.50,364.00 715.50,365.00 715.50,366.00 715.50,367.00 715.50,368.00 715.50,369.00 715.50,370.00 715.50,371.00 715.50,372.00 715.50,373.00 715.50,374.00 715.50,375.00 715.50,376.00 715.50,377.00 716.00,377.50 716.50,378.00 716.50,379.00 716.50,380.00 716.50,381.00 716.50,382.00 716.50,383.00 716.50,384.00 716.50,385.00 716.50,386.00 716.50,387.00 716.50,388.00 716.50,389.00 716.50,390.00 716.50,391.00 716.50,392.00 716.50,393.00 716.50,394.00 716.50,395.00 716.50,396.00 716.50,397.00 716.50,398.00 716.50,399.00 716.50,400.00 716.50,401.00 716.50,402.00 716.50,403.00 716.50,404.00 716.50,405.00 716.50,406.00 716.50,407.00 716.50,408.00 716.50,409.00 716.50,410.00 716.00,410.50 715.50,411.00 716.00,411.50 716.50,412.00 716.00,412.50 715.50,413.00 715.50,414.00 715.50,415.00 715.50,416.00 715.50,417.00 715.50,418.00 715.50,419.00 715.50,420.00 716.00,420.50 716.50,421.00 716.50,422.00 716.00,422.50 715.50,423.00 715.50,424.00 715.50,425.00 716.00,425.50 716.50,426.00 716.00,426.50 715.50,427.00 715.50,428.00 715.50,429.00 715.50,430.00 715.50,431.00 715.50,432.00 715.50,433.00 715.50,434.00 715.50,435.00 715.50,436.00 715.50,437.00 715.50,438.00 715.50,439.00 715.50,440.00 715.50,441.00 715.50,442.00 715.50,443.00 715.50,444.00 715.50,445.00 715.50,446.00 715.50,447.00 715.50,448.00 715.50,449.00 715.50,450.00 715.50,451.00 715.50,452.00 715.50,453.00 715.50,454.00 715.50,455.00 715.50,456.00 715.50,457.00 715.50,458.00 715.50,459.00 715.50,460.00 715.50,461.00 715.00,461.50 714.50,462.00 714.50,463.00 714.50,464.00 714.00,464.50 713.50,465.00 713.50,466.00 713.50,467.00 713.00,467.50 712.50,468.00 712.50,469.00 712.00,469.50 711.50,470.00 711.50,471.00 711.00,471.50 710.50,472.00 710.00,472.50 709.50,473.00 709.00,473.50 708.50,474.00 708.50,475.00 708.00,475.50 707.50,476.00 707.00,476.50 706.50,477.00 706.00,477.50 705.50,478.00 705.00,478.50 704.50,479.00 704.00,479.50 703.50,480.00 703.00,480.50 702.50,481.00 702.00,481.50 701.00,481.50 700.50,482.00 700.00,482.50 699.50,483.00 699.00,483.50 698.00,483.50 697.50,484.00 697.00,484.50 696.00,484.50 695.50,485.00 695.00,485.50 694.00,485.50 693.50,486.00 693.00,486.50 692.00,486.50 691.00,486.50 690.50,487.00 690.00,487.50 689.00,487.50 688.00,487.50 687.00,487.50 686.00,487.50 685.50,488.00 685.00,488.50 Z" fill="black"/><path d="M 466.00,713.50 465.50,713.00 465.00,712.50 464.00,712.50 463.00,712.50 462.00,712.50 461.00,712.50 460.00,712.50 459.00,712.50 458.00,712.50 457.50,712.00 457.00,711.50 456.00,711.50 455.00,711.50 454.00,711.50 453.00,711.50 452.00,711.50 451.50,711.00 451.00,710.50 450.00,710.50 449.00,710.50 448.00,710.50 447.00,710.50 446.00,710.50 445.00,710.50 444.50,710.00 444.00,709.50 443.00,709.50 442.00,709.50 441.00,709.50 440.00,709.50 439.50,709.00 439.00,708.50 438.00,708.50 437.00,708.50 436.00,708.50 435.00,708.50 434.50,708.00 434.00,707.50 433.00,707.50 432.00,707.50 431.00,707.50 430.00,707.50 429.50,707.00 429.00,706.50 428.00,706.50 427.00,706.50 426.50,706.00 426.00,705.50 425.00,705.50 424.00,705.50 423.00,705.50 422.50,705.00 422.00,704.50 421.00,704.50 420.00,704.50 419.50,704.00 419.00,703.50 418.00,703.50 417.00,703.50 416.50,703.00 416.00,702.50 415.00,702.50 414.00,702.50 413.50,702.00 413.00,701.50 412.00,701.50 411.00,701.50 410.00,701.50 409.50,701.00 409.00,700.50 408.00,700.50 407.00,700.50 406.50,700.00 406.00,699.50 405.00,699.50 404.00,699.50 403.50,699.00 403.00,698.50 402.00,698.50 401.50,698.00 401.00,697.50 400.00,697.50 399.00,697.50 398.50,697.00 398.00,696.50 397.00,696.50 396.00,696.50 395.50,696.00 395.00,695.50 394.00,695.50 393.50,695.00 393.00,694.50 392.00,694.50 391.50,694.00 391.00,693.50 390.00,693.50 389.50,693.00 389.00,692.50 388.00,692.50 387.50,692.00 387.00,691.50 386.00,691.50 385.00,691.50 384.50,691.00 384.00,690.50 383.00,690.50 382.50,690.00 382.00,689.50 381.00,689.50 380.50,689.00 380.00,688.50 379.00,688.50 378.50,688.00 378.00,687.50 377.00,687.50 376.50,687.00 376.00,686.50 375.00,686.50 374.50,686.00 374.00,685.50 373.50,685.00 373.00,684.50 372.00,684.50 371.50,684.00 371.00,683.50 370.00,683.50 369.50,683.00 369.00,682.50 368.50,682.00 368.00,681.50 367.00,681.50 366.50,681.00 366.00,680.50 365.50,680.00 365.00,679.50 364.00,679.50 363.50,679.00 363.00,678.50 362.50,678.00 362.00,677.50 361.00,677.50 360.50,677.00 360.00,676.50 359.50,676.00 359.00,675.50 358.00,675.50 357.50,675.00 357.00,674.50 356.50,674.00 356.00,673.50 355.00,673.50 354.50,673.00 354.00,672.50 353.50,672.00 353.00,671.50 352.00,671.50 351.50,671.00 351.00,670.50 350.50,670.00 350.00,669.50 349.50,669.00 349.00,668.50 348.50,668.00 348.00,667.50 347.00,667.50 346.50,667.00 346.00,666.50 345.50,666.00 345.00,665.50 344.50,665.00 344.00,664.50 343.50,664.00 343.00,663.50 342.00,663.50 341.50,663.00 341.00,662.50 340.50,662.00 340.50,661.00 340.00,660.50 339.00,660.50 338.50,660.00 338.00,659.50 337.50,659.00 337.00,658.50 336.50,658.00 336.00,657.50 335.50,657.00 335.00,656.50 334.50,656.00 334.00,655.50 333.50,655.00 333.00,654.50 332.50,654.00 332.00,653.50 331.50,653.00 331.00,652.50 330.50,652.00 330.00,651.50 329.50,651.00 329.00,650.50 328.50,650.00 328.00,649.50 327.50,649.00 327.00,648.50 326.50,648.00 326.00,647.50 325.50,647.00 325.00,646.50 324.50,646.00 324.00,645.50 323.50,645.00 323.00,644.50 322.50,644.00 322.00,643.50 321.50,643.00 321.00,642.50 320.50,642.00 320.50,641.00 320.00,640.50 319.50,640.00 319.00,639.50 318.50,639.00 318.00,638.50 317.50,638.00 317.00,637.50 316.50,637.00 316.00,636.50 315.50,636.00 315.50,635.00 315.00,634.50 314.50,634.00 314.00,633.50 313.50,633.00 313.00,632.50 312.50,632.00 312.00,631.50 311.50,631.00 311.50,630.00 311.00,629.50 310.50,629.00 310.00,628.50 309.50,628.00 309.50,627.00 309.00,626.50 308.50,626.00 308.00,625.50 307.50,625.00 307.50,624.00 307.00,623.50 306.50,623.00 306.00,622.50 305.50,622.00 305.50,621.00 305.00,620.50 304.50,620.00 304.50,619.00 304.00,618.50 303.50,618.00 303.50,617.00 303.00,616.50 302.50,616.00 302.00,615.50 301.50,615.00 301.50,614.00 301.00,613.50 300.50,613.00 300.50,612.00 300.00,611.50 299.50,611.00 299.00,610.50 298.50,610.00 298.50,609.00 298.50,608.00 298.00,607.50 297.50,607.00 297.50,606.00 297.00,605.50 296.50,605.00 296.50,604.00 296.00,603.50 295.50,603.00 295.50,602.00 295.00,601.50 294.50,601.00 294.50,600.00 294.00,599.50 293.50,599.00 293.50,598.00 293.50,597.00 293.00,596.50 292.50,596.00 292.50,595.00 292.00,594.50 291.50,594.00 291.50,593.00 291.00,592.50 290.50,592.00 290.50,591.00 290.50,590.00 290.00,589.50 289.50,589.00 289.50,588.00 289.50,587.00 289.00,586.50 288.50,586.00 288.50,585.00 288.50,584.00 288.00,583.50 287.50,583.00 287.50,582.00 287.50,581.00 287.00,580.50 286.50,580.00 286.50,579.00 286.50,578.00 286.00,577.50 285.50,577.00 285.50,576.00 285.50,575.00 285.00,574.50 284.50,574.00 284.50,573.00 284.50,572.00 284.00,571.50 283.50,571.00 283.50,570.00 283.50,569.00 283.50,568.00 283.00,567.50 282.50,567.00 282.50,566.00 282.50,565.00 282.50,564.00 282.50,563.00 282.50,562.00 282.00,561.50 281.50,561.00 281.50,560.00 281.50,559.00 281.50,558.00 281.50,557.00 281.50,556.00 281.50,555.00 281.00,554.50 280.50,554.00 280.50,553.00 280.50,552.00 280.50,551.00 280.50,550.00 280.50,549.00 280.50,548.00 280.00,547.50 279.50,547.00 279.50,546.00 279.50,545.00 279.50,544.00 279.50,543.00 279.50,542.00 279.50,541.00 279.50,540.00 279.50,539.00 279.50,538.00 279.50,537.00 279.50,536.00 279.50,535.00 279.50,534.00 279.50,533.00 279.00,532.50 278.50,532.00 278.50,531.00 278.50,530.00 278.50,529.00 278.50,528.00 278.50,527.00 278.50,526.00 278.50,525.00 278.50,524.00 278.50,523.00 279.00,522.50 279.50,522.00 279.50,521.00 279.50,520.00 279.50,519.00 280.00,518.50 280.50,518.00 280.50,517.00 280.50,516.00 281.00,515.50 281.50,515.00 281.50,514.00 281.50,513.00 282.00,512.50 282.50,512.00 282.50,511.00 283.00,510.50 283.50,510.00 284.00,509.50 284.50,509.00 284.50,508.00 285.00,507.50 285.50,507.00 286.00,506.50 286.50,506.00 287.00,505.50 287.50,505.00 288.00,504.50 288.50,504.00 289.00,503.50 290.00,503.50 290.50,503.00 291.00,502.50 291.50,502.00 292.00,501.50 293.00,501.50 293.50,501.00 294.00,500.50 295.00,500.50 295.50,500.00 296.00,499.50 297.00,499.50 298.00,499.50 298.50,499.00 299.00,498.50 300.00,498.50 301.00,498.50 302.00,498.50 302.50,498.00 303.00,497.50 304.00,497.50 305.00,497.50 306.00,497.50 307.00,497.50 308.00,497.50 309.00,497.50 309.50,498.00 310.00,498.50 311.00,498.50 312.00,498.50 313.00,498.50 314.00,498.50 314.50,499.00 315.00,499.50 316.00,499.50 317.00,499.50 317.50,500.00 318.00,500.50 319.00,500.50 319.50,501.00 320.00,501.50 321.00,501.50 321.50,502.00 322.00,502.50 322.50,503.00 323.00,503.50 324.00,503.50 324.50,504.00 325.00,504.50 325.50,505.00 326.00,505.50 326.50,506.00 327.00,506.50 327.50,507.00 328.00,507.50 328.50,508.00 328.50,509.00 329.00,509.50 329.50,510.00 330.00,510.50 330.50,511.00 330.50,512.00 331.00,512.50 331.50,513.00 331.50,514.00 332.00,514.50 332.50,515.00 332.50,516.00 332.50,517.00 332.50,518.00 333.00,518.50 333.50,519.00 333.50,520.00 333.50,521.00 333.50,522.00 333.50,523.00 333.50,524.00 333.50,525.00 333.50,526.00 333.50,527.00 334.00,527.50 334.50,528.00 334.50,529.00 334.50,530.00 334.50,531.00 334.50,532.00 334.50,533.00 334.50,534.00 334.50,535.00 334.50,536.00 334.50,537.00 334.50,538.00 334.50,539.00 334.50,540.00 334.50,541.00 335.00,541.50 335.50,542.00 335.50,543.00 335.50,544.00 335.50,545.00 335.50,546.00 335.50,547.00 335.50,548.00 336.00,548.50 336.50,549.00 336.50,550.00 336.50,551.00 336.50,552.00 336.50,553.00 337.00,553.50 337.50,554.00 337.50,555.00 337.50,556.00 337.50,557.00 337.50,558.00 338.00,558.50 338.50,559.00 338.50,560.00 338.50,561.00 338.50,562.00 338.50,563.00 339.00,563.50 339.50,564.00 339.50,565.00 339.50,566.00 340.00,566.50 340.50,567.00 340.50,568.00 340.50,569.00 341.00,569.50 341.50,570.00 341.50,571.00 341.50,572.00 342.00,572.50 342.50,573.00 342.50,574.00 343.00,574.50 343.50,575.00 343.50,576.00 343.50,577.00 344.00,577.50 344.50,578.00 344.50,579.00 345.00,579.50 345.50,580.00 345.50,581.00 346.00,581.50 346.50,582.00 346.50,583.00 347.00,583.50 347.50,584.00 347.50,585.00 348.00,585.50 348.50,586.00 348.50,587.00 349.00,587.50 349.50,588.00 349.50,589.00 350.00,589.50 350.50,590.00 351.00,590.50 351.50,591.00 352.00,591.50 352.50,592.00 352.50,593.00 353.00,593.50 353.50,594.00 354.00,594.50 354.50,595.00 354.50,596.00 355.00,596.50 355.50,597.00 356.00,597.50 356.50,598.00 356.50,599.00 357.00,599.50 357.50,600.00 358.00,600.50 358.50,601.00 359.00,601.50 359.50,602.00 360.00,602.50 360.50,603.00 361.00,603.50 361.50,604.00 361.50,605.00 362.00,605.50 362.50,606.00 363.00,606.50 363.50,607.00 364.00,607.50 364.50,608.00 365.00,608.50 365.50,609.00 366.00,609.50 366.50,610.00 367.00,610.50 367.50,611.00 368.00,611.50 368.50,612.00 369.00,612.50 369.50,613.00 370.00,613.50 370.50,614.00 371.00,614.50 371.50,615.00 372.00,615.50 372.50,616.00 373.00,616.50 373.50,617.00 374.00,617.50 375.00,617.50 375.50,618.00 376.00,618.50 376.50,619.00 377.00,619.50 377.50,620.00 378.00,620.50 378.50,621.00 379.00,621.50 379.50,622.00 380.00,622.50 380.50,623.00 381.00,623.50 381.50,624.00 382.00,624.50 383.00,624.50 383.50,625.00 384.00,625.50 384.50,626.00 385.00,626.50 385.50,627.00 386.00,627.50 386.50,628.00 387.00,628.50 388.00,628.50 388.50,629.00 389.00,629.50 390.00,629.50 390.50,630.00 391.00,630.50 391.50,631.00 392.00,631.50 393.00,631.50 393.50,632.00 394.00,632.50 394.50,633.00 395.00,633.50 396.00,633.50 396.50,634.00 397.00,634.50 397.50,635.00 398.00,635.50 399.00,635.50 399.50,636.00 400.00,636.50 401.00,636.50 401.50,637.00 402.00,637.50 403.00,637.50 403.50,638.00 404.00,638.50 405.00,638.50 405.50,639.00 406.00,639.50 407.00,639.50 407.50,640.00 408.00,640.50 409.00,640.50 409.50,641.00 410.00,641.50 411.00,641.50 411.50,642.00 412.00,642.50 413.00,642.50 413.50,643.00 414.00,643.50 415.00,643.50 415.50,644.00 416.00,644.50 417.00,644.50 417.50,645.00 418.00,645.50 419.00,645.50 420.00,645.50 420.50,646.00 421.00,646.50 422.00,646.50 422.50,647.00 423.00,647.50 424.00,647.50 425.00,647.50 425.50,648.00 426.00,648.50 427.00,648.50 428.00,648.50 428.50,649.00 429.00,649.50 430.00,649.50 431.00,649.50 431.50,650.00 432.00,650.50 433.00,650.50 434.00,650.50 434.50,651.00 435.00,651.50 436.00,651.50 437.00,651.50 438.00,651.50 438.50,652.00 439.00,652.50 440.00,652.50 441.00,652.50 442.00,652.50 442.50,653.00 443.00,653.50 444.00,653.50 445.00,653.50 445.50,654.00 446.00,654.50 447.00,654.50 448.00,654.50 449.00,654.50 450.00,654.50 451.00,654.50 451.50,655.00 452.00,655.50 453.00,655.50 454.00,655.50 455.00,655.50 456.00,655.50 457.00,655.50 457.50,656.00 458.00,656.50 459.00,656.50 460.00,656.50 461.00,656.50 462.00,656.50 463.00,656.50 464.00,656.50 465.00,656.50 466.00,656.50 467.00,656.50 468.00,656.50 469.00,656.50 470.00,656.50 471.00,656.50 471.50,657.00 472.00,657.50 473.00,657.50 474.00,657.50 475.00,657.50 476.00,657.50 477.00,657.50 477.50,658.00 478.00,658.50 479.00,658.50 480.00,658.50 480.50,659.00 481.00,659.50 482.00,659.50 483.00,659.50 483.50,660.00 484.00,660.50 485.00,660.50 485.50,661.00 486.00,661.50 486.50,662.00 487.00,662.50 487.50,663.00 488.00,663.50 489.00,663.50 489.50,664.00 490.00,664.50 490.50,665.00 491.00,665.50 491.50,666.00 492.00,666.50 492.50,667.00 492.50,668.00 493.00,668.50 493.50,669.00 493.50,670.00 494.00,670.50 494.50,671.00 494.50,672.00 495.00,672.50 495.50,673.00 495.50,674.00 496.00,674.50 496.50,675.00 496.50,676.00 496.50,677.00 496.50,678.00 497.00,678.50 497.50,679.00 497.50,680.00 497.50,681.00 497.50,682.00 497.50,683.00 497.50,684.00 497.50,685.00 497.50,686.00 497.50,687.00 497.50,688.00 497.50,689.00 497.50,690.00 497.00,690.50 496.50,691.00 496.50,692.00 496.50,693.00 496.00,693.50 495.50,694.00 495.50,695.00 495.50,696.00 495.00,696.50 494.50,697.00 494.50,698.00 494.00,698.50 493.50,699.00 493.50,700.00 493.00,700.50 492.50,701.00 492.00,701.50 491.50,702.00 491.00,702.50 490.50,703.00 490.50,704.00 490.00,704.50 489.50,705.00 489.00,705.50 488.50,706.00 488.00,706.50 487.00,706.50 486.50,707.00 486.00,707.50 485.50,708.00 485.00,708.50 484.50,709.00 484.00,709.50 483.00,709.50 482.50,710.00 482.00,710.50 481.00,710.50 480.00,710.50 479.50,711.00 479.00,711.50 478.00,711.50 477.50,712.00 477.00,712.50 476.00,712.50 475.00,712.50 474.00,712.50 473.00,712.50 472.00,712.50 471.00,712.50 470.00,712.50 469.00,712.50 468.00,712.50 467.00,712.50 466.50,713.00 466.00,713.50 Z" fill="black"/>
</svg>